# File created by Blade
# Date/Time:  Fri Jan 16 19:41:12 2015
# Frame Rate: 120.000 fps
#------------------------------------------------------
:FULLY-SPECIFIED
:DEGREES
1038
root 18.038792 35.411800 -20.272245 12.813927 0.229832 -1.630604
Spine -32.294622 -0.689612 5.128763
Head 30.425194 -2.535790 -4.149903
LeftShoulder -31.057030 -54.360950 57.627195
LeftArm 75.084883 -30.144553 -37.445523
LeftForeArm -23.696938 -0.000000 152.124502
LeftHand 3.036234 -0.000000 4.165381
LeftHandThumb1 -26.253704 0.000000 33.147579
RightShoulder -1.053261 -35.393810 -0.937399
RightArm -1.370827 -66.017869 77.355255
RightForeArm -4.452052 -0.000000 131.818520
RightHand 7.052843 -0.000000 47.762820
RightHandThumb1 -24.326973 -0.000000 -32.862282
LeftUpLeg -0.016134 5.869605 2.502033
LeftLeg -7.143389 -0.000000 0.000000
LeftFoot -23.217274 29.036471 -17.195031
LeftToeBase 23.315538 -0.000000 -0.000000
RightUpLeg -0.912427 -7.353064 0.386486
RightLeg -4.746506 -0.000000 0.000000
RightFoot -22.985116 -21.741544 20.885113
RightToeBase 22.356929 -0.000000 -0.000000
1039
root 18.037206 35.411174 -20.272583 12.792286 0.218828 -1.630553
Spine -32.280449 -0.707547 5.134996
Head 30.491873 -2.507715 -4.148160
LeftShoulder -30.909073 -54.296444 57.457002
LeftArm 75.066984 -30.126804 -37.298262
LeftForeArm -23.594322 -0.000000 152.151444
LeftHand 3.055832 0.000000 4.292731
LeftHandThumb1 -26.253704 0.000000 33.147579
RightShoulder -0.992091 -35.417262 -0.957090
RightArm -1.418148 -65.946632 77.399243
RightForeArm -4.535037 0.000000 131.843583
RightHand 7.096970 -0.000000 47.791694
RightHandThumb1 -24.326973 -0.000000 -32.862282
LeftUpLeg 0.008219 5.879187 2.504547
LeftLeg -7.144600 -0.000000 0.000000
LeftFoot -23.198866 29.049043 -17.160229
LeftToeBase 23.277827 -0.000000 -0.000000
RightUpLeg -0.895246 -7.350494 0.384634
RightLeg -4.741367 -0.000000 0.000000
RightFoot -22.989037 -21.740352 20.867096
RightToeBase 22.379197 -0.000000 -0.000000
1040
root 18.035021 35.409529 -20.271004 12.768833 0.211542 -1.626251
Spine -32.278538 -0.650488 5.092162
Head 30.594808 -2.554950 -4.160997
LeftShoulder -30.598004 -54.283923 57.135914
LeftArm 75.113483 -30.186129 -37.206441
LeftForeArm -23.868401 -0.000000 152.060808
LeftHand 3.459825 -0.000000 4.150931
LeftHandThumb1 -26.253704 0.000000 33.147579
RightShoulder -1.036570 -35.447355 -0.946014
RightArm -1.462081 -65.890807 77.472864
RightForeArm -4.574555 -0.000000 131.833865
RightHand 7.163543 0.000000 47.814205
RightHandThumb1 -24.326973 -0.000000 -32.862282
LeftUpLeg 0.036174 5.885415 2.503792
LeftLeg -7.147213 -0.000000 0.000000
LeftFoot -23.215832 29.053003 -17.153475
LeftToeBase 23.331999 -0.000000 -0.000000
RightUpLeg -0.871755 -7.361721 0.381458
RightLeg -4.737847 -0.000000 0.000000
RightFoot -22.990711 -21.739713 20.830002
RightToeBase 22.387126 -0.000000 -0.000000
1041
root 18.033558 35.408199 -20.270202 12.742170 0.202486 -1.619180
Spine -32.276963 -0.606741 5.057083
Head 30.712779 -2.579803 -4.171245
LeftShoulder -30.300578 -54.277136 56.841794
LeftArm 75.102990 -30.193702 -37.060726
LeftForeArm -23.831029 0.000000 152.077428
LeftHand 3.637793 0.000000 4.165191
LeftHandThumb1 -26.253704 0.000000 33.147579
RightShoulder -1.042654 -35.477556 -0.950298
RightArm -1.541125 -65.821850 77.576274
RightForeArm -4.633447 -0.000000 131.821758
RightHand 7.296964 -0.000000 47.855287
RightHandThumb1 -24.326973 -0.000000 -32.862282
LeftUpLeg 0.066433 5.874577 2.500602
LeftLeg -7.148134 -0.000000 0.000000
LeftFoot -23.216827 29.079008 -17.130748
LeftToeBase 23.354563 -0.000000 -0.000000
RightUpLeg -0.846309 -7.349357 0.370666
RightLeg -4.733399 -0.000000 0.000000
RightFoot -22.997046 -21.756038 20.778865
RightToeBase 22.387851 -0.000000 -0.000000
1042
root 18.030982 35.406813 -20.270456 12.658021 0.201051 -1.615088
Spine -32.222354 -0.550519 5.018142
Head 30.900526 -2.611396 -4.204867
LeftShoulder -29.909909 -54.325066 56.443556
LeftArm 75.101299 -30.167209 -36.854693
LeftForeArm -23.534038 -0.000000 152.201553
LeftHand 3.528914 -0.000000 4.342593
LeftHandThumb1 -26.253704 0.000000 33.147579
RightShoulder -1.028710 -35.560427 -0.970462
RightArm -1.453026 -65.773267 77.583308
RightForeArm -4.699804 0.000000 131.774055
RightHand 7.556686 -0.000000 48.121358
RightHandThumb1 -24.326973 -0.000000 -32.862282
LeftUpLeg 0.148725 5.860197 2.510546
LeftLeg -7.146065 -0.000000 0.000000
LeftFoot -23.217122 29.101361 -17.117248
LeftToeBase 23.343740 -0.000000 -0.000000
RightUpLeg -0.769041 -7.355589 0.360120
RightLeg -4.720286 -0.000000 0.000000
RightFoot -23.007194 -21.760502 20.745126
RightToeBase 22.400984 -0.000000 -0.000000
1043
root 18.029371 35.405396 -20.270273 12.634995 0.210626 -1.609918
Spine -32.233154 -0.535896 4.995151
Head 31.043590 -2.622325 -4.217581
LeftShoulder -29.633982 -54.340835 56.185464
LeftArm 75.110691 -30.147039 -36.750067
LeftForeArm -23.351246 -0.000000 152.315171
LeftHand 3.449470 -0.000000 4.510199
LeftHandThumb1 -26.253704 0.000000 33.147579
RightShoulder -1.019182 -35.612456 -0.998937
RightArm -1.460417 -65.695601 77.626768
RightForeArm -4.625585 0.000000 131.756531
RightHand 7.592868 -0.000000 48.131130
RightHandThumb1 -24.326973 -0.000000 -32.862282
LeftUpLeg 0.164042 5.852870 2.511864
LeftLeg -7.130920 -0.000000 0.000000
LeftFoot -23.226631 29.101898 -17.085947
LeftToeBase 23.353939 -0.000000 -0.000000
RightUpLeg -0.743928 -7.366086 0.356947
RightLeg -4.721807 -0.000000 0.000000
RightFoot -23.023466 -21.775196 20.701715
RightToeBase 22.449956 -0.000000 -0.000000
